<svg width="15" height="17" viewBox="0 0 15 17" fill="none" xmlns="http://www.w3.org/2000/svg">
<path d="M0.75 15C0.75 15.8438 1.40625 16.5 2.25 16.5H13.25C14.0625 16.5 14.75 15.8438 14.75 15V6.5H0.75V15ZM10.75 8.875C10.75 8.6875 10.9062 8.5 11.125 8.5H12.375C12.5625 8.5 12.75 8.6875 12.75 8.875V10.125C12.75 10.3438 12.5625 10.5 12.375 10.5H11.125C10.9062 10.5 10.75 10.3438 10.75 10.125V8.875ZM10.75 12.875C10.75 12.6875 10.9062 12.5 11.125 12.5H12.375C12.5625 12.5 12.75 12.6875 12.75 12.875V14.125C12.75 14.3438 12.5625 14.5 12.375 14.5H11.125C10.9062 14.5 10.75 14.3438 10.75 14.125V12.875ZM6.75 8.875C6.75 8.6875 6.90625 8.5 7.125 8.5H8.375C8.5625 8.5 8.75 8.6875 8.75 8.875V10.125C8.75 10.3438 8.5625 10.5 8.375 10.5H7.125C6.90625 10.5 6.75 10.3438 6.75 10.125V8.875ZM6.75 12.875C6.75 12.6875 6.90625 12.5 7.125 12.5H8.375C8.5625 12.5 8.75 12.6875 8.75 12.875V14.125C8.75 14.3438 8.5625 14.5 8.375 14.5H7.125C6.90625 14.5 6.75 14.3438 6.75 14.125V12.875ZM2.75 8.875C2.75 8.6875 2.90625 8.5 3.125 8.5H4.375C4.5625 8.5 4.75 8.6875 4.75 8.875V10.125C4.75 10.3438 4.5625 10.5 4.375 10.5H3.125C2.90625 10.5 2.75 10.3438 2.75 10.125V8.875ZM2.75 12.875C2.75 12.6875 2.90625 12.5 3.125 12.5H4.375C4.5625 12.5 4.75 12.6875 4.75 12.875V14.125C4.75 14.3438 4.5625 14.5 4.375 14.5H3.125C2.90625 14.5 2.75 14.3438 2.75 14.125V12.875ZM13.25 2.5H11.75V1C11.75 0.75 11.5 0.5 11.25 0.5H10.25C9.96875 0.5 9.75 0.75 9.75 1V2.5H5.75V1C5.75 0.75 5.5 0.5 5.25 0.5H4.25C3.96875 0.5 3.75 0.75 3.75 1V2.5H2.25C1.40625 2.5 0.75 3.1875 0.75 4V5.5H14.75V4C14.75 3.1875 14.0625 2.5 13.25 2.5Z" fill="#7ABDFF"/>
</svg>
