<svg width="17" height="13" viewBox="0 0 17 13" fill="none" xmlns="http://www.w3.org/2000/svg">
<path d="M16.4575 4.46875C15.7388 5.03125 14.8325 5.71875 11.645 8.03125C11.02 8.5 9.86377 9.53125 8.77002 9.53125C7.64502 9.53125 6.52002 8.5 5.86377 8.03125C2.67627 5.71875 1.77002 5.03125 1.05127 4.46875C0.92627 4.375 0.77002 4.46875 0.77002 4.625V11C0.77002 11.8438 1.42627 12.5 2.27002 12.5H15.27C16.0825 12.5 16.77 11.8438 16.77 11V4.625C16.77 4.46875 16.5825 4.375 16.4575 4.46875ZM8.77002 8.5C9.48877 8.53125 10.52 7.59375 11.0513 7.21875C15.2075 4.21875 15.52 3.9375 16.4575 3.1875C16.645 3.0625 16.77 2.84375 16.77 2.59375V2C16.77 1.1875 16.0825 0.5 15.27 0.5H2.27002C1.42627 0.5 0.77002 1.1875 0.77002 2V2.59375C0.77002 2.84375 0.86377 3.0625 1.05127 3.1875C1.98877 3.9375 2.30127 4.21875 6.45752 7.21875C6.98877 7.59375 8.02002 8.53125 8.77002 8.5Z" fill="#7ABDFF"/>
</svg>
