<svg width="19" height="29" viewBox="0 0 19 29" fill="none" xmlns="http://www.w3.org/2000/svg">
<path d="M14.7602 -9.53674e-07H4.036C4.036 -9.53674e-07 4.0312 -9.53674e-07 4.02159 -9.53674e-07C4.01198 -9.53674e-07 4.00717 -9.53674e-07 4.00717 -9.53674e-07C2.91169 -9.53674e-07 1.96995 0.387043 1.18197 1.16113C0.39399 1.93522 0 2.86035 0 3.93652C0 3.93652 0 3.94124 0 3.95068C0 3.96012 0 3.96484 0 3.96484V25.0352C0 25.0352 0 25.0446 0 25.0635C0 26.1396 0.39399 27.0648 1.18197 27.8389C1.96995 28.613 2.91169 29 4.00717 29C4.00717 29 4.01198 29 4.02159 29C4.0312 29 4.036 29 4.036 29H14.7602C15.8749 29 16.8263 28.613 17.6143 27.8389C18.4022 27.0648 18.7962 26.1396 18.7962 25.0635C18.7962 25.0446 18.7962 25.0352 18.7962 25.0352V3.96484C18.7962 3.96484 18.7962 3.96012 18.7962 3.95068C18.7962 3.94124 18.7962 3.93652 18.7962 3.93652C18.7962 2.86035 18.4022 1.93522 17.6143 1.16113C16.8263 0.387043 15.8749 -9.53674e-07 14.7602 -9.53674e-07ZM12.0792 26.3662H6.71706V25.0352H12.0792V26.3662ZM16.4323 22.4014H2.33511V3.96484H16.4323V22.4014Z" fill="#002A5C"/>
</svg>
