<svg width="91" height="91" viewBox="0 0 91 91" fill="none" xmlns="http://www.w3.org/2000/svg">
<g clip-path="url(#clip0_3_1074)">
<path d="M45.135 90.63C70.0624 90.63 90.27 70.4224 90.27 45.495C90.27 20.5676 70.0624 0.359985 45.135 0.359985C20.2076 0.359985 0 20.5676 0 45.495C0 70.4224 20.2076 90.63 45.135 90.63Z" fill="#005DCB"/>
<path d="M54.059 62.0344H69.2307V31.8423H57.7053L54.4228 25.8909H35.8426L32.5601 31.8423H21.0393V62.0344H36.501" stroke="white" stroke-width="1.82364" stroke-miterlimit="10"/>
<path d="M45.28 64.7918C53.7774 64.7918 60.666 57.9033 60.666 49.4058C60.666 40.9083 53.7774 34.0198 45.28 34.0198C36.7825 34.0198 29.8939 40.9083 29.8939 49.4058C29.8939 57.9033 36.7825 64.7918 45.28 64.7918Z" stroke="white" stroke-width="1.82364" stroke-miterlimit="10"/>
<path d="M45.2809 60.4387C51.3737 60.4387 56.313 55.4995 56.313 49.4066C56.313 43.3137 51.3737 38.3745 45.2809 38.3745C39.188 38.3745 34.2488 43.3137 34.2488 49.4066C34.2488 55.4995 39.188 60.4387 45.2809 60.4387Z" stroke="white" stroke-width="1.82364" stroke-miterlimit="10"/>
<path d="M65.8925 35.1804H60.0861V38.2286H65.8925V35.1804Z" stroke="white" stroke-width="1.82364" stroke-miterlimit="10"/>
<path d="M24.6847 31.5524V29.375H30.0225V31.5524" stroke="white" stroke-width="1.82364" stroke-miterlimit="10"/>
</g>
<defs>
<clipPath id="clip0_3_1074">
<rect width="90.27" height="90.27" fill="white" transform="translate(0 0.359985)"/>
</clipPath>
</defs>
</svg>
