<svg width="91" height="91" viewBox="0 0 91 91" fill="none" xmlns="http://www.w3.org/2000/svg">
<g clip-path="url(#clip0_3_1050)">
<path d="M45.655 90.63C70.5824 90.63 90.79 70.4224 90.79 45.495C90.79 20.5676 70.5824 0.359985 45.655 0.359985C20.7276 0.359985 0.52002 20.5676 0.52002 45.495C0.52002 70.4224 20.7276 90.63 45.655 90.63Z" fill="#005DCB"/>
<path d="M53.3672 60.1917C50.3972 57.7324 46.6918 56.3337 42.8375 56.2171C41.4201 57.4101 40.1399 58.7573 39.0206 60.2336C37.0648 59.5644 34.9357 57.4298 33.0482 55.1366C31.1608 52.8433 29.4803 50.3404 29.2013 48.2925C30.8661 47.4796 32.4353 46.4838 33.8798 45.3236C34.5108 41.52 33.8549 37.6147 32.0161 34.2259C28.4302 33.796 24.7939 34.2712 21.439 35.6082C19.9728 39.9685 19.4822 49.7997 27.6612 60.1361C36.2268 70.1569 46.0936 70.1387 50.6554 69.5424C52.9368 66.3529 53.3034 62.2697 53.3672 60.1917Z" stroke="white" stroke-width="1.82364" stroke-miterlimit="10"/>
<path d="M47.6537 49.0293H39.6434V47.8503L43.3727 44.7237C44.3329 43.8502 45.1635 43.1818 45.5492 42.7177C45.9171 42.3196 46.2299 41.874 46.4793 41.3928C46.6727 40.9771 46.7791 40.5262 46.792 40.0679C46.7541 39.4648 46.51 38.893 46.1006 38.4484C45.6912 38.0039 45.1415 37.7136 44.5435 37.6261C42.7199 37.1638 40.692 38.3063 39.6197 39.933" stroke="white" stroke-width="1.82364" stroke-miterlimit="10"/>
<path d="M57.9527 45.5963H49.9424V44.1802L54.2462 37.5859H55.6641V50.1736" stroke="white" stroke-width="1.82364" stroke-miterlimit="10"/>
<path d="M45.3651 20.42V24.9974" stroke="white" stroke-width="1.82364" stroke-miterlimit="10"/>
<path d="M36.7538 21.9382L38.3194 26.2393" stroke="white" stroke-width="1.82364" stroke-miterlimit="10"/>
<path d="M29.1821 26.3104L32.1246 29.8173" stroke="white" stroke-width="1.82364" stroke-miterlimit="10"/>
<path d="M61.548 64.8821L58.6056 61.3752" stroke="white" stroke-width="1.82364" stroke-miterlimit="10"/>
<path d="M67.1685 58.1839L63.2039 55.8953" stroke="white" stroke-width="1.82364" stroke-miterlimit="10"/>
<path d="M70.1583 49.9684L65.6503 49.1733" stroke="white" stroke-width="1.82364" stroke-miterlimit="10"/>
<path d="M70.1583 41.2241L65.6503 42.0192" stroke="white" stroke-width="1.82364" stroke-miterlimit="10"/>
<path d="M67.1685 33.0077L63.2039 35.2964" stroke="white" stroke-width="1.82364" stroke-miterlimit="10"/>
<path d="M61.548 26.3104L58.6056 29.8173" stroke="white" stroke-width="1.82364" stroke-miterlimit="10"/>
<path d="M53.9754 21.9382L52.4098 26.2393" stroke="white" stroke-width="1.82364" stroke-miterlimit="10"/>
</g>
<defs>
<clipPath id="clip0_3_1050">
<rect width="90.27" height="90.27" fill="white" transform="translate(0.52002 0.359985)"/>
</clipPath>
</defs>
</svg>
