<svg width="91" height="91" viewBox="0 0 91 91" fill="none" xmlns="http://www.w3.org/2000/svg">
<g clip-path="url(#clip0_3_1033)">
<path d="M45.135 90.63C70.0624 90.63 90.27 70.4224 90.27 45.495C90.27 20.5676 70.0624 0.359985 45.135 0.359985C20.2076 0.359985 0 20.5676 0 45.495C0 70.4224 20.2076 90.63 45.135 90.63Z" fill="#005DCB"/>
<path d="M64.6835 47.222L65.6053 48.028L69.1824 44.0078L68.9681 43.8164L69.1824 43.5811L64.7829 39.6521L64.8412 22.7078H58.1849L58.0518 33.6422L45.2864 22.2445L45.073 22.4351L44.8596 22.2445L20.97 43.5811L21.1843 43.8164L20.97 44.0078L24.5471 48.028L25.4142 47.2712L25.3002 66.7212C25.309 67.4767 25.613 68.1987 26.1472 68.7329C26.6814 69.2671 27.4034 69.571 28.1588 69.5798H61.9918C62.7452 69.5646 63.4635 69.2586 63.9963 68.7258C64.5291 68.1929 64.8352 67.4746 64.8503 66.7212L64.6807 47.222H64.6835Z" stroke="white" stroke-width="1.82364" stroke-linecap="round" stroke-linejoin="round"/>
<path d="M45.0767 40.8284V43.6687" stroke="white" stroke-width="1.82364" stroke-linecap="round" stroke-linejoin="round"/>
<path d="M45.0767 56.0557V58.896" stroke="white" stroke-width="1.82364" stroke-linecap="round" stroke-linejoin="round"/>
<path d="M45.0776 36.778C46.7953 36.778 48.4961 37.1163 50.0831 37.7736C51.67 38.4309 53.1119 39.3944 54.3265 40.609C55.5411 41.8236 56.5046 43.2656 57.1619 44.8525C57.8193 46.4395 58.1576 48.1403 58.1576 49.858C58.1576 51.5757 57.8193 53.2766 57.1619 54.8635C56.5046 56.4504 55.5411 57.8924 54.3265 59.107C53.1119 60.3216 51.67 61.285 50.0831 61.9423C48.4961 62.5997 46.7953 62.9381 45.0776 62.9381C43.3598 62.9382 41.6589 62.6 40.0719 61.9427C38.4849 61.2854 37.0429 60.3219 35.8283 59.1073C34.6137 57.8926 33.6502 56.4506 32.9929 54.8636C32.3356 53.2766 31.9974 51.5757 31.9975 49.858C31.9975 46.3889 33.3756 43.062 35.8286 40.609C38.2816 38.156 41.6085 36.778 45.0776 36.778Z" stroke="white" stroke-width="1.82364" stroke-linecap="round" stroke-linejoin="round"/>
<path d="M49.1962 45.1494C48.0086 44.6992 46.7779 44.3719 45.5234 44.1728C39.1407 43.4562 38.3246 49.8835 45.1168 49.8626C51.7174 49.8425 51.0956 56.2754 44.7001 55.5523C43.4488 55.3524 42.2212 55.0252 41.0364 54.5758" stroke="white" stroke-width="1.82364" stroke-linecap="round" stroke-linejoin="round"/>
</g>
<defs>
<clipPath id="clip0_3_1033">
<rect width="90.27" height="90.27" fill="white" transform="translate(0 0.359985)"/>
</clipPath>
</defs>
</svg>
