<svg width="91" height="91" viewBox="0 0 91 91" fill="none" xmlns="http://www.w3.org/2000/svg">
<g clip-path="url(#clip0_3_1090)">
<path d="M45.655 90.63C70.5824 90.63 90.79 70.4224 90.79 45.495C90.79 20.5676 70.5824 0.359985 45.655 0.359985C20.7276 0.359985 0.52002 20.5676 0.52002 45.495C0.52002 70.4224 20.7276 90.63 45.655 90.63Z" fill="#005DCB"/>
<path d="M69.2648 48.1025V74.197H50.506V62.6451" stroke="white" stroke-width="1.82364" stroke-linecap="round" stroke-linejoin="round"/>
<path d="M63.3517 61.0386H56.4218V67.9684H63.3517V61.0386Z" stroke="white" stroke-width="1.82364" stroke-linecap="round" stroke-linejoin="round"/>
<path d="M74.1877 60.5625L74.0618 60.4495L74.1877 60.3109L60.1357 47.7615L60.0098 47.8737L59.884 47.7615L44.1697 62.5329" stroke="white" stroke-width="1.82364" stroke-linecap="round" stroke-linejoin="round"/>
<path d="M53.9481 38.7574C52.4044 44.3286 48.2036 48.3861 44.2171 48.5886C40.2152 48.3861 36.0035 44.303 34.4716 38.7054L33.7167 38.8276C33.509 38.8567 33.2976 38.8443 33.0948 38.7911C32.892 38.7379 32.7018 38.645 32.5351 38.5178C32.3685 38.3906 32.2287 38.2316 32.124 38.05C32.0192 37.8684 31.9515 37.6678 31.9249 37.4599L31.1854 32.5078C31.117 32.0874 31.2156 31.657 31.4603 31.3084C31.7049 30.9598 32.0761 30.7207 32.4947 30.6422L33.0309 30.551C32.787 29.7532 32.664 28.9234 32.6661 28.0891V26.2655C32.6297 24.158 33.4287 22.1216 34.8885 20.6011C36.3483 19.0807 38.3504 18.1996 40.4577 18.1503H41.3859C41.3743 18.0029 41.394 17.8547 41.4434 17.7153C41.9221 16.4005 45.117 16.4389 48.5801 17.8066C49.2833 18.0833 49.9678 18.4055 50.629 18.7713C52.0703 19.4191 53.2922 20.4719 54.1459 21.8017C54.9995 23.1315 55.4481 24.6808 55.437 26.2609V28.0846C55.4394 28.9188 55.3164 29.7487 55.0723 30.5464L55.6084 30.6376C56.0271 30.7161 56.3984 30.9552 56.6432 31.3038C56.888 31.6523 56.9869 32.0827 56.9187 32.5032L56.1792 37.4553C56.1525 37.6633 56.0849 37.8638 55.9802 38.0455C55.8754 38.2271 55.7357 38.3861 55.569 38.5133C55.4024 38.6405 55.2121 38.7334 55.0093 38.7865C54.8065 38.8397 54.5951 38.8521 54.3875 38.823L53.9562 38.7528L53.9481 38.7574Z" stroke="white" stroke-width="1.82364" stroke-linecap="round" stroke-linejoin="round"/>
<path d="M40.1377 32.1858V33.4596" stroke="white" stroke-width="1.82364" stroke-linecap="round" stroke-linejoin="round"/>
<path d="M48.3723 32.1858V33.4596" stroke="white" stroke-width="1.82364" stroke-linecap="round" stroke-linejoin="round"/>
<path d="M46.4894 41.2913C45.8574 41.8031 45.0687 42.0824 44.2554 42.0824C43.4421 42.0824 42.6535 41.8031 42.0215 41.2913" stroke="white" stroke-width="1.82364" stroke-linecap="round" stroke-linejoin="round"/>
<path d="M55.861 30.6649C55.5537 28.9543 52.9167 24.4646 49.4983 23.7351C43.7666 30.5354 34.6357 21.4264 32.6479 29.9446" stroke="white" stroke-width="1.82364" stroke-linecap="round" stroke-linejoin="round"/>
<path d="M36.5679 48.791C33.7157 53.3583 26.4595 53.0765 22.1247 53.9838C19.7631 54.4798 16.9273 57.8006 16.9273 60.6993V68.7014" stroke="white" stroke-width="1.82364" stroke-linecap="round" stroke-linejoin="round"/>
<path d="M45.8073 74.2007V61.2939" stroke="white" stroke-width="1.82364" stroke-linecap="round" stroke-linejoin="round"/>
<path d="M57.02 50.4496L54.0109 47.7661L53.8852 47.8783L53.7593 47.7661L38.0451 62.5376" stroke="white" stroke-width="1.82364" stroke-linecap="round" stroke-linejoin="round"/>
<path d="M41.3832 59.5186V74.1988H50.5014" stroke="white" stroke-width="1.82364" stroke-linecap="round" stroke-linejoin="round"/>
</g>
<defs>
<clipPath id="clip0_3_1090">
<rect width="90.27" height="90.27" fill="white" transform="translate(0.52002 0.359985)"/>
</clipPath>
</defs>
</svg>
