<svg width="13" height="17" viewBox="0 0 13 17" fill="none" xmlns="http://www.w3.org/2000/svg">
<path d="M6.14502 15.6875C6.42627 16.125 7.08252 16.125 7.36377 15.6875C11.9263 9.125 12.77 8.4375 12.77 6C12.77 2.6875 10.0825 0 6.77002 0C3.42627 0 0.77002 2.6875 0.77002 6C0.77002 8.4375 1.58252 9.125 6.14502 15.6875ZM6.77002 8.5C5.36377 8.5 4.27002 7.40625 4.27002 6C4.27002 4.625 5.36377 3.5 6.77002 3.5C8.14502 3.5 9.27002 4.625 9.27002 6C9.27002 7.40625 8.14502 8.5 6.77002 8.5Z" fill="#7ABDFF"/>
</svg>
