<svg width="17" height="17" viewBox="0 0 17 17" fill="none" xmlns="http://www.w3.org/2000/svg">
<path d="M16.3013 11.8125C16.5513 11.9375 16.7388 12.2188 16.7388 12.5312C16.7388 12.5625 16.7388 12.625 16.7388 12.6875L15.9888 15.9375C15.895 16.2812 15.6138 16.5 15.27 16.5C7.23877 16.5 0.77002 10.0312 0.77002 2C0.77002 1.65625 0.98877 1.375 1.33252 1.28125L4.58252 0.53125C4.64502 0.53125 4.70752 0.5 4.73877 0.5C5.05127 0.5 5.33252 0.6875 5.45752 0.96875L6.95752 4.46875C6.98877 4.5625 7.02002 4.65625 7.02002 4.75C7.02002 5 6.89502 5.21875 6.73877 5.34375L4.83252 6.90625C5.98877 9.34375 7.92627 11.2812 10.3638 12.4375L11.9263 10.5312C12.0513 10.375 12.27 10.25 12.4888 10.25C12.6138 10.25 12.7075 10.2812 12.8013 10.3125L16.3013 11.8125Z" fill="#7ABDFF"/>
</svg>
