<svg width="16" height="17" viewBox="0 0 16 17" fill="none" xmlns="http://www.w3.org/2000/svg">
<path d="M7.75 0.75C3.46875 0.75 0 4.21875 0 8.5C0 12.7812 3.46875 16.25 7.75 16.25C12.0312 16.25 15.5 12.7812 15.5 8.5C15.5 4.21875 12.0312 0.75 7.75 0.75ZM10.625 10.5312L10 11.3125C9.90625 11.4375 9.78125 11.5312 9.59375 11.5312C9.5 11.5312 9.375 11.4688 9.3125 11.4062L7.21875 9.84375C6.90625 9.625 6.75 9.28125 6.75 8.875V4C6.75 3.75 6.96875 3.5 7.25 3.5H8.25C8.5 3.5 8.75 3.75 8.75 4V8.5L10.5625 9.84375C10.6562 9.9375 10.75 10.0625 10.75 10.2188C10.75 10.3438 10.6875 10.4688 10.625 10.5312Z" fill="#7ABDFF"/>
</svg>
